<?xml version="1.0" standalone="no"?>
<!DOCTYPE svg PUBLIC "-//W3C//DTD SVG 20010904//EN"
 "http://www.w3.org/TR/2001/REC-SVG-20010904/DTD/svg10.dtd">
<svg version="1.0" xmlns="http://www.w3.org/2000/svg"
 width="302.000000pt" height="57.000000pt" viewBox="0 0 302.000000 57.000000"
 preserveAspectRatio="xMidYMid meet">
<metadata>
Created by potrace 1.16, written by Peter Selinger 2001-2019
</metadata>
<g transform="translate(0.000000,57.000000) scale(0.100000,-0.100000)"
fill="#000000" stroke="none">
<path d="M2560 520 c0 -46 2 -50 24 -50 31 0 37 -17 19 -60 -27 -68 -82 -106
-182 -130 -61 -14 -254 -9 -383 11 l-78 11 0 49 c0 27 -3 49 -7 49 -5 0 -8
-25 -8 -55 0 -50 2 -55 25 -59 200 -38 446 -37 535 3 50 22 101 74 117 119 7
17 16 32 21 32 5 0 7 7 3 15 -4 12 3 15 29 15 l35 0 0 50 0 50 -75 0 -75 0 0
-50z m56 5 c-31 -29 -36 -30 -36 -12 0 8 10 19 23 25 37 18 41 13 13 -13z m74
-10 l0 -35 -57 2 -58 1 55 7 c30 4 48 7 41 8 -12 2 -12 5 -3 14 7 7 12 16 12
20 0 4 -9 -1 -20 -12 -18 -18 -50 -28 -50 -15 0 6 62 45 73 45 4 0 7 -16 7
-35z"/>
<path d="M2805 550 c-3 -5 2 -10 12 -10 15 0 16 -2 3 -10 -10 -6 -11 -10 -2
-10 18 0 15 -18 -5 -24 -14 -4 -14 -4 2 -3 13 2 20 10 21 25 1 25 -21 49 -31
32z"/>
<path d="M2964 548 c-5 -7 -9 -22 -9 -33 0 -29 40 -27 41 2 2 29 -20 48 -32
31z m23 -14 c-3 -3 -12 -4 -19 -1 -8 3 -5 6 6 6 11 1 17 -2 13 -5z m3 -24 c0
-5 -7 -10 -16 -10 -8 0 -12 5 -9 10 3 6 10 10 16 10 5 0 9 -4 9 -10z"/>
<path d="M2747 535 c-9 -22 3 -46 22 -43 10 2 16 13 16 28 0 28 -29 40 -38 15z
m33 -15 c0 -11 -4 -20 -9 -20 -14 0 -23 18 -16 30 10 17 25 11 25 -10z"/>
<path d="M0 465 l0 -65 125 0 125 0 0 65 0 65 -125 0 -125 0 0 -65z m240 5 l0
-50 -110 0 -110 0 0 50 0 50 110 0 110 0 0 -50z"/>
<path d="M42 467 c-2 -34 0 -38 21 -35 17 2 22 10 23 33 1 28 1 28 -3 3 -6
-39 -31 -35 -36 5 -4 31 -4 31 -5 -6z"/>
<path d="M110 466 c0 -29 4 -36 19 -36 10 0 24 7 32 16 16 20 1 48 -30 52 -18
3 -21 -1 -21 -32z m43 12 c6 -19 -3 -38 -19 -38 -8 0 -14 10 -14 25 0 26 25
35 33 13z"/>
<path d="M177 494 c-9 -10 4 -34 19 -34 23 0 16 -18 -8 -23 -20 -4 -19 -4 5
-6 30 -1 39 25 12 35 -20 8 -19 21 3 27 14 4 13 5 -4 6 -11 0 -23 -2 -27 -5z"/>
<path d="M2896 523 c-9 -10 6 -33 23 -33 14 0 14 2 1 10 -13 8 -12 10 4 10 11
0 16 3 12 7 -8 9 -33 13 -40 6z"/>
<path d="M1840 345 c0 -30 3 -55 8 -55 4 0 7 25 7 55 0 30 -3 55 -7 55 -5 0
-8 -25 -8 -55z"/>
<path d="M1031 353 c0 -30 2 -34 9 -18 7 18 8 19 15 3 11 -29 22 -21 23 17 1
31 -1 35 -23 35 -22 0 -25 -4 -24 -37z m29 17 c0 -5 -4 -10 -10 -10 -5 0 -10
5 -10 10 0 6 5 10 10 10 6 0 10 -4 10 -10z"/>
<path d="M1198 371 c-27 -26 -23 -51 7 -51 22 0 25 4 25 35 0 39 -7 42 -32 16z"/>
<path d="M1240 356 l0 -35 50 1 c46 0 50 2 50 24 0 17 -6 24 -19 24 -11 0 -23
5 -26 10 -3 6 -17 10 -31 10 -21 0 -24 -5 -24 -34z m35 -1 c0 -10 -6 -20 -12
-22 -8 -3 -13 5 -13 22 0 17 5 25 13 23 6 -3 12 -13 12 -23z"/>
<path d="M1440 355 c0 -31 3 -35 25 -35 22 0 25 4 25 35 0 31 -3 35 -25 35
-22 0 -25 -4 -25 -35z m30 15 c0 -5 -4 -10 -10 -10 -5 0 -10 5 -10 10 0 6 5
10 10 10 6 0 10 -4 10 -10z m5 -30 c3 -5 -1 -10 -9 -10 -9 0 -16 5 -16 10 0 6
4 10 9 10 6 0 13 -4 16 -10z"/>
<path d="M1561 358 l-1 -38 53 0 c37 0 48 3 37 10 -10 6 -11 10 -2 10 6 0 12
7 12 16 0 11 -6 15 -20 11 -13 -3 -20 0 -20 9 0 18 -8 18 -28 -2 -15 -15 -16
-15 -23 2 -5 14 -8 8 -8 -18z"/>
<path d="M1790 379 c0 -6 -12 -10 -27 -9 -16 1 -32 1 -38 0 -5 -1 -20 -1 -32
0 -18 1 -23 -4 -23 -24 0 -29 16 -35 23 -8 4 16 5 16 6 0 0 -10 5 -18 10 -18
5 0 12 8 14 18 4 16 5 16 6 0 1 -12 9 -18 26 -18 17 0 25 6 26 18 0 14 2 14 8
-3 l8 -20 5 20 c5 16 6 17 7 3 2 -28 21 -21 21 7 0 17 -6 25 -17 26 -15 0 -15
2 2 9 19 8 19 9 -2 9 -13 1 -23 -4 -23 -10z m-30 -39 c0 -5 -4 -10 -10 -10 -5
0 -10 5 -10 10 0 6 5 10 10 10 6 0 10 -4 10 -10z"/>
<path d="M1355 370 c-2 -4 -1 -16 2 -28 4 -17 13 -22 39 -22 29 0 34 3 34 24
0 20 -6 24 -36 28 -19 2 -37 1 -39 -2z m40 -30 c-3 -5 -10 -10 -16 -10 -5 0
-9 5 -9 10 0 6 7 10 16 10 8 0 12 -4 9 -10z"/>
<path d="M30 354 c0 -8 6 -14 13 -14 8 0 7 -4 -3 -10 -11 -7 0 -10 38 -10 40
0 52 4 52 15 0 19 19 20 26 1 3 -7 16 -13 30 -13 19 0 24 5 24 23 0 15 -6 24
-15 24 -8 0 -15 -5 -15 -11 0 -8 -4 -8 -13 0 -20 16 -137 12 -137 -5z"/>
<path d="M226 362 c-3 -3 -6 -14 -6 -24 0 -15 8 -18 43 -18 31 0 38 3 27 10
-10 6 -11 10 -2 10 6 0 12 6 12 14 0 14 -62 21 -74 8z m34 -23 c0 -5 -4 -9
-10 -9 -5 0 -10 7 -10 16 0 8 5 12 10 9 6 -3 10 -10 10 -16z"/>
<path d="M929 366 c0 -1 -2 -11 -3 -23 -2 -20 2 -23 31 -23 30 0 34 3 31 23
-2 16 -10 22 -30 23 -16 1 -28 1 -29 0z"/>
<path d="M1097 363 c-4 -3 -7 -15 -7 -25 0 -14 8 -18 40 -18 36 0 40 3 40 25
0 22 -4 25 -33 25 -19 0 -37 -3 -40 -7z m38 -23 c-3 -5 -12 -10 -18 -10 -7 0
-6 4 3 10 19 12 23 12 15 0z"/>
<path d="M1503 336 c1 -20 7 -36 12 -36 13 0 37 61 28 69 -3 3 -8 0 -10 -7 -4
-10 -8 -10 -18 -2 -11 9 -13 4 -12 -24z"/>
<path d="M0 170 c0 -75 1 -76 58 -71 12 1 22 -3 22 -9 0 -10 -13 -14 -37 -11
-8 1 -13 -9 -13 -24 0 -22 4 -25 35 -25 33 0 35 2 35 36 l0 35 85 -2 c47 -2
85 -7 85 -12 0 -5 -12 -8 -27 -7 -16 1 -32 1 -38 0 -5 -1 -28 -2 -50 -3 -33
-2 -41 -6 -43 -24 -3 -20 1 -23 27 -23 20 0 31 6 34 18 4 16 5 16 6 0 0 -10 5
-18 10 -18 5 0 12 8 14 18 4 16 5 16 6 0 1 -12 9 -18 26 -18 17 0 25 6 26 18
0 14 2 14 8 -3 l8 -20 5 20 c5 16 6 17 7 3 1 -13 10 -18 34 -18 24 0 28 3 17
10 -10 6 -11 10 -2 10 6 0 12 7 12 16 0 9 -8 14 -17 13 -10 -1 -27 0 -38 1
l-20 1 20 9 c11 5 163 9 338 9 l317 1 0 70 0 70 -475 0 -475 0 0 -70z m938 3
l-3 -58 -457 -3 -458 -2 0 60 0 60 460 0 461 0 -3 -57z m-698 -123 c0 -5 -4
-10 -10 -10 -5 0 -10 5 -10 10 0 6 5 10 10 10 6 0 10 -4 10 -10z"/>
<path d="M41 183 c1 -21 3 -30 6 -20 5 20 19 22 26 4 2 -7 18 -13 33 -14 25
-1 26 0 9 7 -17 7 -17 9 -2 9 18 1 23 16 8 26 -5 3 -17 -5 -26 -17 l-16 -23 3
30 c2 25 -1 31 -19 33 -21 3 -23 -1 -22 -35z m39 17 c0 -5 -7 -10 -15 -10 -8
0 -15 5 -15 10 0 6 7 10 15 10 8 0 15 -4 15 -10z"/>
<path d="M207 195 c-19 -27 -15 -45 9 -45 9 0 14 11 14 35 0 19 -1 35 -2 35
-2 0 -11 -12 -21 -25z m9 -32 c-10 -10 -19 5 -10 18 6 11 8 11 12 0 2 -7 1
-15 -2 -18z"/>
<path d="M250 186 c0 -28 4 -36 18 -36 10 0 23 5 29 11 8 8 13 8 17 0 4 -6 14
-11 22 -11 20 0 15 42 -6 47 -9 3 -11 1 -5 -4 6 -4 11 -13 12 -20 4 -20 -22
-4 -32 20 -6 12 -20 23 -32 25 -20 3 -23 -1 -23 -32z m45 -1 c0 -11 -8 -21
-17 -23 -14 -3 -18 3 -18 23 0 20 4 26 18 23 9 -2 17 -12 17 -23z"/>
<path d="M450 185 c0 -32 3 -36 23 -33 17 2 22 10 22 33 0 23 -5 31 -22 33
-20 3 -23 -1 -23 -33z m40 15 c0 -5 -7 -10 -15 -10 -8 0 -15 5 -15 10 0 6 7
10 15 10 8 0 15 -4 15 -10z m0 -30 c0 -5 -7 -10 -15 -10 -8 0 -15 5 -15 10 0
6 7 10 15 10 8 0 15 -4 15 -10z"/>
<path d="M563 185 c0 -22 2 -30 4 -17 2 12 2 30 0 40 -3 9 -5 -1 -4 -23z"/>
<path d="M597 195 c-19 -27 -15 -45 9 -45 9 0 14 11 14 35 0 19 -1 35 -2 35
-2 0 -11 -12 -21 -25z m9 -32 c-10 -10 -19 5 -10 18 6 11 8 11 12 0 2 -7 1
-15 -2 -18z"/>
<path d="M800 183 c0 -43 6 -41 13 5 3 17 1 32 -4 32 -5 0 -9 -16 -9 -37z"/>
<path d="M370 182 c0 -25 4 -29 31 -30 25 -1 30 3 27 20 -2 12 -10 23 -18 25
-9 3 -11 1 -5 -4 17 -14 14 -29 -6 -29 -14 0 -19 5 -16 18 3 10 1 21 -4 24 -5
3 -9 -8 -9 -24z"/>
<path d="M740 182 c0 -18 4 -32 8 -32 9 0 8 47 -1 57 -4 3 -7 -8 -7 -25z"/>
<path d="M155 193 c17 -14 16 -33 -2 -26 -11 4 -14 3 -9 -5 4 -7 14 -12 22
-12 20 0 15 42 -6 47 -9 3 -11 1 -5 -4z"/>
<path d="M640 185 c-14 -17 -5 -35 18 -34 14 0 13 2 -3 9 -17 7 -17 9 -2 9 18
1 23 16 8 25 -5 3 -14 -1 -21 -9z"/>
<path d="M694 185 c-3 -8 -4 -20 -1 -27 3 -7 6 -2 7 12 l2 25 8 -25 8 -25 1
28 c1 29 -16 37 -25 12z"/>
<path d="M855 190 c-4 -6 -11 -8 -16 -5 -5 4 -9 -3 -9 -13 0 -18 3 -19 25 -9
14 7 25 15 25 19 0 12 -19 19 -25 8z"/>
<path d="M519 172 c6 -12 9 -28 5 -35 -5 -8 -4 -9 3 -2 6 6 13 21 17 35 3 14
3 19 0 12 -5 -10 -9 -10 -22 0 -14 12 -14 10 -3 -10z"/>
<path d="M772 170 c0 -14 2 -19 5 -12 2 6 2 18 0 25 -3 6 -5 1 -5 -13z"/>
<path d="M902 170 c0 -14 2 -19 5 -12 2 6 2 18 0 25 -3 6 -5 1 -5 -13z"/>
<path d="M858 153 c7 -3 16 -2 19 1 4 3 -2 6 -13 5 -11 0 -14 -3 -6 -6z"/>
<path d="M1030 55 c0 -30 3 -55 8 -55 4 0 7 25 7 55 0 30 -3 55 -7 55 -5 0 -8
-25 -8 -55z"/>
<path d="M1295 55 c0 -30 3 -55 8 -55 4 0 7 25 7 55 0 30 -3 55 -7 55 -5 0 -8
-25 -8 -55z"/>
<path d="M1057 93 c-4 -3 -7 -19 -7 -35 0 -26 9 -33 35 -28 5 1 21 1 35 1 33
-2 153 -2 162 -2 12 1 5 63 -7 67 -7 3 -28 -4 -48 -15 -27 -15 -35 -16 -30 -6
8 22 -22 29 -49 11 -21 -14 -27 -14 -44 -1 -21 16 -37 19 -47 8z m20 -40 c-3
-10 -5 -4 -5 12 0 17 2 24 5 18 2 -7 2 -21 0 -30z m93 17 c-10 -7 -11 -10 -2
-10 6 0 12 -4 12 -10 0 -8 -13 -8 -50 0 -3 0 6 10 19 21 13 11 26 17 30 14 3
-3 -1 -10 -9 -15z"/>
<path d="M360 55 c0 -14 5 -25 10 -25 6 0 10 7 10 15 0 9 6 12 16 8 13 -5 13
-7 2 -14 -9 -6 -7 -9 10 -9 17 0 22 6 22 25 0 22 -4 25 -35 25 -31 0 -35 -3
-35 -25z"/>
<path d="M929 78 c-10 -38 -4 -48 28 -48 30 0 34 3 31 23 -2 16 -11 23 -30 25
-16 2 -28 2 -29 0z"/>
</g>
</svg>
