<?xml version="1.0" standalone="no"?>
<!DOCTYPE svg PUBLIC "-//W3C//DTD SVG 20010904//EN"
 "http://www.w3.org/TR/2001/REC-SVG-20010904/DTD/svg10.dtd">
<svg version="1.0" xmlns="http://www.w3.org/2000/svg"
 width="333.000000pt" height="84.000000pt" viewBox="0 0 333.000000 84.000000"
 preserveAspectRatio="xMidYMid meet">
<metadata>
Created by potrace 1.16, written by Peter Selinger 2001-2019
</metadata>
<g transform="translate(0.000000,84.000000) scale(0.100000,-0.100000)"
fill="#000000" stroke="none">
<path d="M2560 785 c0 -51 2 -55 24 -55 29 0 37 -16 23 -50 -25 -58 -91 -109
-169 -128 -58 -15 -223 -15 -343 -2 -142 17 -135 13 -135 70 0 28 -3 50 -7 50
-5 0 -8 -25 -8 -55 0 -40 4 -57 15 -60 28 -9 275 -35 330 -35 153 0 262 42
310 117 17 26 30 51 30 56 0 17 29 37 54 37 25 0 26 3 26 55 l0 55 -75 0 -75
0 0 -55z m74 23 c-5 -8 -2 -9 9 -5 10 4 24 10 32 13 12 5 15 -2 15 -30 l0 -36
-55 0 c-46 0 -55 3 -55 18 0 10 3 13 8 6 4 -6 27 -12 52 -12 29 -1 40 1 31 7
-9 6 -10 11 -2 15 6 4 11 11 11 17 0 5 -9 0 -20 -11 -19 -19 -21 -19 -38 -2
-16 15 -16 18 -2 24 21 9 22 9 14 -4z m-14 -28 c0 -5 -4 -10 -10 -10 -5 0 -10
5 -10 10 0 6 5 10 10 10 6 0 10 -4 10 -10z"/>
<path d="M3030 785 l0 -55 64 0 c87 0 89 -7 44 -150 -111 -347 -541 -516
-1327 -521 -91 -1 -191 -4 -221 -9 -87 -12 202 -12 423 0 404 22 670 81 861
190 164 94 277 250 303 420 9 61 21 70 92 70 l61 0 0 55 0 55 -150 0 -150 0 0
-55z m195 5 c-1 -17 3 -30 10 -30 6 0 11 12 10 28 0 23 4 27 33 30 33 3 44
-11 16 -22 -10 -4 -13 -2 -8 7 5 8 2 7 -9 -2 -22 -18 -17 -34 14 -42 13 -4
-36 -7 -108 -8 l-133 -1 0 35 0 35 88 0 89 0 -2 -30z m82 -16 c-3 -3 -12 -4
-19 -1 -8 3 -5 6 6 6 11 1 17 -2 13 -5z"/>
<path d="M3060 781 c0 -16 7 -19 44 -19 37 0 43 2 39 17 -5 21 -30 24 -37 4
-6 -15 -36 -18 -36 -4 0 5 8 12 18 14 13 4 11 5 -5 6 -16 1 -23 -5 -23 -18z"/>
<path d="M2751 811 c-14 -25 -4 -53 18 -49 21 4 26 41 7 57 -12 10 -17 9 -25
-8z m29 -21 c0 -21 -15 -27 -25 -10 -7 12 2 30 16 30 5 0 9 -9 9 -20z"/>
<path d="M2805 820 c-3 -5 2 -10 12 -10 15 0 16 -2 3 -10 -10 -6 -11 -10 -2
-10 18 0 15 -18 -5 -24 -14 -4 -14 -4 2 -3 13 2 20 10 21 25 1 25 -21 49 -31
32z"/>
<path d="M2964 818 c-5 -7 -9 -22 -9 -33 0 -29 40 -27 41 2 2 29 -20 48 -32
31z m23 -14 c-3 -3 -12 -4 -19 -1 -8 3 -5 6 6 6 11 1 17 -2 13 -5z m3 -24 c0
-5 -7 -10 -16 -10 -8 0 -12 5 -9 10 3 6 10 10 16 10 5 0 9 -4 9 -10z"/>
<path d="M0 735 l0 -65 125 0 125 0 0 65 0 65 -125 0 -125 0 0 -65z m240 -5
l0 -50 -110 0 -110 0 0 50 0 50 110 0 110 0 0 -50z"/>
<path d="M42 737 c-2 -34 0 -38 21 -35 17 2 22 10 23 33 1 28 1 28 -3 3 -6
-39 -31 -35 -36 5 -4 31 -4 31 -5 -6z"/>
<path d="M110 736 c0 -29 4 -36 19 -36 10 0 24 7 32 16 16 20 1 48 -30 52 -18
3 -21 -1 -21 -32z m43 12 c6 -19 -3 -38 -19 -38 -8 0 -14 10 -14 25 0 26 25
35 33 13z"/>
<path d="M177 764 c-9 -10 4 -34 19 -34 23 0 16 -18 -8 -23 -20 -4 -19 -4 5
-6 30 -1 39 25 12 35 -20 8 -19 21 3 27 14 4 13 5 -4 6 -11 0 -23 -2 -27 -5z"/>
<path d="M2896 793 c-9 -10 6 -33 23 -33 14 0 14 2 1 10 -13 8 -12 10 4 10 11
0 16 3 12 7 -8 9 -33 13 -40 6z"/>
<path d="M1840 615 c0 -30 3 -55 8 -55 4 0 7 25 7 55 0 30 -3 55 -7 55 -5 0
-8 -25 -8 -55z"/>
<path d="M1031 623 c0 -30 2 -34 9 -18 7 18 8 19 15 3 11 -29 22 -21 23 17 1
31 -1 35 -23 35 -22 0 -25 -4 -24 -37z m29 17 c0 -5 -4 -10 -10 -10 -5 0 -10
5 -10 10 0 6 5 10 10 10 6 0 10 -4 10 -10z"/>
<path d="M1198 641 c-27 -26 -23 -51 7 -51 22 0 25 4 25 35 0 39 -7 42 -32 16z"/>
<path d="M1240 626 l0 -35 50 1 c46 0 50 2 50 24 0 17 -6 24 -19 24 -11 0 -23
5 -26 10 -3 6 -17 10 -31 10 -21 0 -24 -5 -24 -34z m35 -1 c0 -10 -6 -20 -12
-22 -8 -3 -13 5 -13 22 0 17 5 25 13 23 6 -3 12 -13 12 -23z"/>
<path d="M1440 625 c0 -31 3 -35 25 -35 22 0 25 4 25 35 0 31 -3 35 -25 35
-22 0 -25 -4 -25 -35z m30 15 c0 -5 -4 -10 -10 -10 -5 0 -10 5 -10 10 0 6 5
10 10 10 6 0 10 -4 10 -10z m5 -30 c3 -5 -1 -10 -9 -10 -9 0 -16 5 -16 10 0 6
4 10 9 10 6 0 13 -4 16 -10z"/>
<path d="M1561 628 l-1 -38 53 0 c37 0 48 3 37 10 -10 6 -11 10 -2 10 6 0 12
7 12 16 0 11 -6 15 -20 11 -13 -3 -20 0 -20 9 0 18 -8 18 -28 -2 -15 -15 -16
-15 -23 2 -5 14 -8 8 -8 -18z"/>
<path d="M1790 649 c0 -6 -12 -10 -27 -9 -16 1 -32 1 -38 0 -5 -1 -20 -1 -32
0 -18 1 -23 -4 -23 -24 0 -29 16 -35 23 -8 4 16 5 16 6 0 0 -10 5 -18 10 -18
5 0 12 8 14 18 4 16 5 16 6 0 1 -12 9 -18 26 -18 17 0 25 6 26 18 0 14 2 14 8
-3 l8 -20 5 20 c5 16 6 17 7 3 2 -28 21 -21 21 7 0 17 -6 25 -17 26 -15 0 -15
2 2 9 19 8 19 9 -2 9 -13 1 -23 -4 -23 -10z m-30 -39 c0 -5 -4 -10 -10 -10 -5
0 -10 5 -10 10 0 6 5 10 10 10 6 0 10 -4 10 -10z"/>
<path d="M1355 640 c-2 -4 -1 -16 2 -28 4 -17 13 -22 39 -22 29 0 34 3 34 24
0 20 -6 24 -36 28 -19 2 -37 1 -39 -2z m40 -30 c-3 -5 -10 -10 -16 -10 -5 0
-9 5 -9 10 0 6 7 10 16 10 8 0 12 -4 9 -10z"/>
<path d="M30 624 c0 -8 6 -14 13 -14 8 0 7 -4 -3 -10 -11 -7 0 -10 38 -10 40
0 52 4 52 15 0 19 19 20 26 1 3 -7 16 -13 30 -13 19 0 24 5 24 23 0 15 -6 24
-15 24 -8 0 -15 -5 -15 -11 0 -8 -4 -8 -13 0 -20 16 -137 12 -137 -5z"/>
<path d="M226 632 c-3 -3 -6 -14 -6 -24 0 -15 8 -18 43 -18 31 0 38 3 27 10
-10 6 -11 10 -2 10 6 0 12 6 12 14 0 14 -62 21 -74 8z m34 -23 c0 -5 -4 -9
-10 -9 -5 0 -10 7 -10 16 0 8 5 12 10 9 6 -3 10 -10 10 -16z"/>
<path d="M929 636 c0 -1 -2 -11 -3 -23 -2 -20 2 -23 31 -23 30 0 34 3 31 23
-2 16 -10 22 -30 23 -16 1 -28 1 -29 0z"/>
<path d="M1097 633 c-4 -3 -7 -15 -7 -25 0 -14 8 -18 40 -18 36 0 40 3 40 25
0 22 -4 25 -33 25 -19 0 -37 -3 -40 -7z m38 -23 c-3 -5 -12 -10 -18 -10 -7 0
-6 4 3 10 19 12 23 12 15 0z"/>
<path d="M1503 606 c1 -20 7 -36 12 -36 13 0 37 61 28 69 -3 3 -8 0 -10 -7 -4
-10 -8 -10 -18 -2 -11 9 -13 4 -12 -24z"/>
<path d="M0 440 l0 -70 30 0 c32 0 40 -14 15 -24 -8 -3 -15 -15 -15 -26 0 -17
6 -20 45 -20 41 0 45 2 45 25 0 18 -5 25 -20 25 -11 0 -20 5 -20 10 0 6 30 10
69 10 l70 0 4 -37 4 -38 1 38 c2 30 6 37 22 37 23 0 27 -15 5 -24 -8 -3 -15
-15 -15 -26 0 -17 6 -20 48 -20 34 0 43 3 32 10 -10 6 -11 10 -2 10 6 0 12 7
12 16 0 11 -6 15 -20 11 -13 -3 -20 0 -20 9 0 12 16 15 85 13 69 -2 84 -5 83
-18 -1 -9 0 -25 1 -36 l2 -20 9 20 c7 17 9 17 9 3 1 -24 81 -26 81 -3 0 8 5
15 10 15 6 0 10 5 10 11 0 6 -16 10 -37 9 -21 -1 -47 -1 -58 0 l-20 1 20 9
c11 5 137 9 281 9 l261 1 -5 -31 c-6 -38 10 -50 49 -39 15 5 30 6 33 3 4 -5
88 -7 144 -4 8 1 11 13 9 36 l-4 35 203 0 204 0 0 70 0 70 -830 0 -830 0 0
-70z m1640 0 l0 -60 -810 0 -810 0 0 60 0 60 810 0 810 0 0 -60z m-510 -75 c0
-2 -8 -9 -19 -14 -13 -7 -24 -6 -37 4 -18 13 -16 14 19 15 20 0 37 -2 37 -5z
m90 1 c0 -3 -13 -11 -28 -18 -25 -13 -28 -13 -28 4 0 13 8 18 28 18 15 0 28
-2 28 -4z m-173 -43 c-3 -10 -5 -4 -5 12 0 17 2 24 5 18 2 -7 2 -21 0 -30z
m93 17 c-10 -7 -11 -10 -2 -10 6 0 12 -4 12 -10 0 -8 -13 -8 -50 0 -3 0 6 10
19 21 13 11 26 17 30 14 3 -3 -1 -10 -9 -15z"/>
<path d="M41 453 c1 -21 3 -30 6 -20 5 20 19 22 26 4 2 -7 18 -13 33 -14 25
-1 26 0 9 7 -17 7 -17 9 -2 9 18 1 23 16 8 26 -5 3 -17 -5 -26 -17 l-16 -23 3
30 c2 25 -1 31 -19 33 -21 3 -23 -1 -22 -35z m39 17 c0 -5 -7 -10 -15 -10 -8
0 -15 5 -15 10 0 6 7 10 15 10 8 0 15 -4 15 -10z"/>
<path d="M207 465 c-19 -27 -15 -45 9 -45 9 0 14 11 14 35 0 19 -1 35 -2 35
-2 0 -11 -12 -21 -25z m9 -32 c-10 -10 -19 5 -10 18 6 11 8 11 12 0 2 -7 1
-15 -2 -18z"/>
<path d="M250 456 c0 -28 4 -36 18 -36 10 0 23 5 29 11 8 8 13 8 17 0 4 -6 14
-11 22 -11 20 0 15 42 -6 47 -9 3 -11 1 -5 -4 6 -4 11 -13 12 -20 4 -20 -22
-4 -32 20 -6 12 -20 23 -32 25 -20 3 -23 -1 -23 -32z m45 -1 c0 -11 -8 -21
-17 -23 -14 -3 -18 3 -18 23 0 20 4 26 18 23 9 -2 17 -12 17 -23z"/>
<path d="M450 455 c0 -32 3 -36 23 -33 17 2 22 10 22 33 0 23 -5 31 -22 33
-20 3 -23 -1 -23 -33z m40 15 c0 -5 -7 -10 -15 -10 -8 0 -15 5 -15 10 0 6 7
10 15 10 8 0 15 -4 15 -10z m0 -30 c0 -5 -7 -10 -15 -10 -8 0 -15 5 -15 10 0
6 7 10 15 10 8 0 15 -4 15 -10z"/>
<path d="M563 455 c0 -22 2 -30 4 -17 2 12 2 30 0 40 -3 9 -5 -1 -4 -23z"/>
<path d="M597 465 c-19 -27 -15 -45 9 -45 9 0 14 11 14 35 0 19 -1 35 -2 35
-2 0 -11 -12 -21 -25z m9 -32 c-10 -10 -19 5 -10 18 6 11 8 11 12 0 2 -7 1
-15 -2 -18z"/>
<path d="M800 453 c0 -43 6 -41 13 5 3 17 1 32 -4 32 -5 0 -9 -16 -9 -37z"/>
<path d="M931 453 c1 -21 3 -31 6 -22 2 10 13 19 25 22 25 7 19 31 -10 35 -19
3 -22 -1 -21 -35z m39 17 c0 -5 -7 -10 -15 -10 -8 0 -15 5 -15 10 0 6 7 10 15
10 8 0 15 -4 15 -10z"/>
<path d="M1251 453 c1 -21 3 -30 6 -20 6 21 12 22 27 2 9 -12 11 -9 11 17 0
27 -4 34 -22 36 -21 3 -23 -1 -22 -35z m39 17 c0 -5 -7 -10 -15 -10 -8 0 -15
5 -15 10 0 6 7 10 15 10 8 0 15 -4 15 -10z"/>
<path d="M370 452 c0 -25 4 -29 31 -30 25 -1 30 3 27 20 -2 12 -10 23 -18 25
-9 3 -11 1 -5 -4 17 -14 14 -29 -6 -29 -14 0 -19 5 -16 18 3 10 1 21 -4 24 -5
3 -9 -8 -9 -24z"/>
<path d="M740 452 c0 -18 4 -32 8 -32 9 0 8 47 -1 57 -4 3 -7 -8 -7 -25z"/>
<path d="M1100 452 c0 -18 4 -32 8 -32 9 0 8 47 -1 57 -4 3 -7 -8 -7 -25z"/>
<path d="M155 463 c17 -14 16 -33 -2 -26 -11 4 -14 3 -9 -5 4 -7 14 -12 22
-12 20 0 15 42 -6 47 -9 3 -11 1 -5 -4z"/>
<path d="M640 455 c-14 -17 -5 -35 18 -34 14 0 13 2 -3 9 -17 7 -17 9 -2 9 18
1 23 16 8 25 -5 3 -14 -1 -21 -9z"/>
<path d="M694 455 c-3 -8 -4 -20 -1 -27 3 -7 6 -2 7 12 l2 25 8 -25 8 -25 1
28 c1 29 -16 37 -25 12z"/>
<path d="M855 460 c-4 -6 -11 -8 -16 -5 -5 4 -9 -3 -9 -13 0 -18 3 -19 25 -9
14 7 25 15 25 19 0 12 -19 19 -25 8z"/>
<path d="M990 456 c-17 -22 -5 -34 35 -34 38 0 56 14 30 24 -13 6 -14 8 -3 15
9 6 9 9 1 9 -6 0 -15 -5 -18 -10 -5 -8 -11 -8 -20 0 -9 7 -16 6 -25 -4z m30
-17 c0 -5 -7 -9 -15 -9 -15 0 -20 12 -9 23 8 8 24 -1 24 -14z m40 -5 c0 -2 -7
-4 -15 -4 -8 0 -15 4 -15 10 0 5 7 7 15 4 8 -4 15 -8 15 -10z"/>
<path d="M1210 455 c-14 -17 -5 -35 18 -34 14 0 13 2 -3 9 -17 7 -17 9 -2 9
18 1 23 16 8 25 -5 3 -14 -1 -21 -9z"/>
<path d="M1318 453 c-15 -18 0 -33 32 -33 33 0 49 17 25 26 -12 5 -14 9 -4 14
7 5 1 7 -15 7 -15 -1 -32 -7 -38 -14z m62 -19 c0 -2 -15 -4 -32 -3 -27 0 -29
2 -13 8 18 8 45 4 45 -5z"/>
<path d="M1407 463 c-4 -3 -7 -19 -7 -35 0 -27 1 -28 16 -14 9 10 24 14 39 10
27 -7 42 11 25 32 -9 10 -16 11 -25 4 -9 -8 -15 -8 -20 0 -7 12 -19 13 -28 3z
m23 -24 c0 -5 -4 -9 -10 -9 -5 0 -10 7 -10 16 0 8 5 12 10 9 6 -3 10 -10 10
-16z m50 0 c0 -5 -7 -9 -15 -9 -15 0 -20 12 -9 23 8 8 24 -1 24 -14z"/>
<path d="M1504 455 c-3 -8 -4 -20 -1 -27 3 -7 6 -2 7 12 l2 25 8 -25 8 -25 1
28 c1 29 -16 37 -25 12z"/>
<path d="M1555 460 c-3 -6 2 -13 11 -17 16 -6 16 -7 -2 -14 -13 -4 -6 -7 21
-7 30 0 35 2 20 9 -17 6 -17 8 -2 8 9 1 17 5 17 10 0 15 -18 23 -25 11 -3 -5
-14 -10 -23 -10 -15 0 -15 2 -2 10 9 6 10 10 3 10 -6 0 -15 -5 -18 -10z"/>
<path d="M519 442 c6 -12 9 -28 5 -35 -5 -8 -4 -9 3 -2 6 6 13 21 17 35 3 14
3 19 0 12 -5 -10 -9 -10 -22 0 -14 12 -14 10 -3 -10z"/>
<path d="M772 440 c0 -14 2 -19 5 -12 2 6 2 18 0 25 -3 6 -5 1 -5 -13z"/>
<path d="M902 440 c0 -14 2 -19 5 -12 2 6 2 18 0 25 -3 6 -5 1 -5 -13z"/>
<path d="M1082 440 c0 -14 2 -19 5 -12 2 6 2 18 0 25 -3 6 -5 1 -5 -13z"/>
<path d="M1141 438 c0 -21 1 -21 8 -4 7 19 8 19 15 1 6 -16 9 -17 16 -5 6 8
10 20 10 25 0 6 -4 4 -9 -4 -6 -9 -11 -10 -15 -2 -12 19 -26 12 -25 -11z"/>
<path d="M858 423 c7 -3 16 -2 19 1 4 3 -2 6 -13 5 -11 0 -14 -3 -6 -6z"/>
<path d="M135 350 c-2 -4 -1 -16 2 -28 4 -17 13 -22 39 -22 29 0 34 3 34 24 0
20 -6 24 -36 28 -19 2 -37 1 -39 -2z m40 -30 c-3 -5 -10 -10 -16 -10 -5 0 -9
5 -9 10 0 6 7 10 16 10 8 0 12 -4 9 -10z"/>
<path d="M395 350 c-2 -4 -16 -5 -30 -2 -22 4 -25 1 -25 -22 0 -29 16 -35 23
-8 4 16 5 16 6 0 0 -10 5 -18 10 -18 5 0 12 8 14 18 4 16 5 16 6 0 2 -29 41
-23 41 6 0 23 -34 44 -45 26z"/>
<path d="M929 348 c-10 -38 -4 -48 28 -48 30 0 34 3 31 23 -2 16 -11 23 -30
25 -16 2 -28 2 -29 0z"/>
<path d="M0 165 l0 -65 120 0 120 0 0 65 0 65 -120 0 -120 0 0 -65z m220 5 l0
-50 -100 0 -100 0 0 50 0 50 100 0 100 0 0 -50z"/>
<path d="M41 163 c1 -21 3 -30 6 -20 6 21 19 22 27 2 3 -8 17 -15 31 -15 21 0
26 4 23 22 -2 12 -10 23 -18 25 -9 3 -11 1 -5 -4 17 -14 14 -29 -6 -29 -14 0
-18 6 -17 26 2 19 -2 26 -19 28 -21 3 -23 -1 -22 -35z m39 17 c0 -5 -7 -10
-15 -10 -8 0 -15 5 -15 10 0 6 7 10 15 10 8 0 15 -4 15 -10z"/>
<path d="M140 170 c0 -8 5 -22 11 -30 9 -12 12 -13 16 -1 4 11 7 11 14 0 10
-16 14 -12 24 21 7 22 6 23 -9 11 -13 -11 -16 -11 -16 0 0 11 -2 11 -10 -1 -9
-13 -11 -13 -20 0 -9 13 -10 13 -10 0z"/>
<path d="M30 55 l0 -35 55 0 c52 0 55 1 55 25 0 24 -3 25 -45 22 -32 -2 -45 0
-45 10 0 7 -4 13 -10 13 -5 0 -10 -16 -10 -35z m47 -17 c-3 -8 -6 -5 -6 6 -1
11 2 17 5 13 3 -3 4 -12 1 -19z"/>
<path d="M168 71 c-27 -26 -23 -51 7 -51 22 0 25 4 25 35 0 39 -7 42 -32 16z"/>
<path d="M1031 74 c0 -11 3 -14 6 -6 3 7 2 16 -1 19 -3 4 -6 -2 -5 -13z"/>
<path d="M1050 85 c0 -12 35 -75 42 -75 11 0 10 4 -9 45 -14 29 -33 47 -33 30z"/>
<path d="M1100 85 c0 -2 8 -20 17 -40 12 -25 21 -34 32 -29 9 3 42 6 74 5 55
-2 57 -1 57 23 0 25 -1 26 -65 24 -58 -2 -64 -4 -59 -20 9 -30 -13 -20 -26 12
-10 25 -30 42 -30 25z m100 -41 c0 -8 -5 -12 -10 -9 -6 4 -8 11 -5 16 9 14 15
11 15 -7z m44 -5 c-8 -14 -24 -10 -24 6 0 9 6 12 15 9 8 -4 12 -10 9 -15z"/>
<path d="M1290 85 c0 -12 35 -75 42 -75 11 0 10 4 -9 45 -14 29 -33 47 -33 30z"/>
<path d="M1340 85 c0 -12 35 -75 42 -75 11 0 10 4 -9 45 -14 29 -33 47 -33 30z"/>
<path d="M1442 75 c-6 -8 -18 -12 -26 -9 -10 4 -14 -2 -12 -19 1 -19 7 -24 28
-25 17 0 28 5 31 16 4 15 5 15 6 0 1 -12 9 -18 24 -18 18 0 19 2 7 10 -10 6
-11 10 -2 10 6 0 12 7 12 16 0 9 -8 14 -17 13 -31 -3 -39 1 -23 11 13 9 13 10
0 9 -8 0 -21 -6 -28 -14z m8 -35 c0 -5 -2 -10 -4 -10 -3 0 -8 5 -11 10 -3 6
-1 10 4 10 6 0 11 -4 11 -10z"/>
<path d="M1531 74 c0 -11 3 -14 6 -6 3 7 2 16 -1 19 -3 4 -6 -2 -5 -13z"/>
<path d="M929 68 c-10 -38 -4 -48 28 -48 30 0 34 3 31 23 -2 16 -11 23 -30 25
-16 2 -28 2 -29 0z"/>
</g>
</svg>
