<?xml version="1.0" encoding="UTF-8" standalone="no"?><svg xmlns:dc="http://purl.org/dc/elements/1.1/" xmlns:cc="http://creativecommons.org/ns#" xmlns:rdf="http://www.w3.org/1999/02/22-rdf-syntax-ns#" xmlns:svg="http://www.w3.org/2000/svg" xmlns="http://www.w3.org/2000/svg" xmlns:sodipodi="http://sodipodi.sourceforge.net/DTD/sodipodi-0.dtd" xmlns:inkscape="http://www.inkscape.org/namespaces/inkscape" width="195.60202" height="195.40172" version="1.0" viewBox="0 0 3556.4003 3908.0344" id="svg3923" sodipodi:docname="b.svg" inkscape:version="0.92.3 (2405546, 2018-03-11)"> <metadata id="metadata3929"> <rdf:RDF> <cc:Work rdf:about=""> <dc:format>image/svg+xml</dc:format> <dc:type rdf:resource="http://purl.org/dc/dcmitype/StillImage" /> <dc:title></dc:title> </cc:Work> </rdf:RDF> </metadata> <defs id="defs3927" /> <sodipodi:namedview pagecolor="#ffffff" bordercolor="#666666" borderopacity="1" objecttolerance="10" gridtolerance="10" guidetolerance="10" inkscape:pageopacity="0" inkscape:pageshadow="2" inkscape:window-width="1920" inkscape:window-height="1017" id="namedview3925" showgrid="false" fit-margin-top="0" fit-margin-left="0" fit-margin-right="0" fit-margin-bottom="0" inkscape:zoom="1.18" inkscape:cx="-70.456965" inkscape:cy="89.80344" inkscape:window-x="-8" inkscape:window-y="-8" inkscape:window-maximized="1" inkscape:current-layer="svg3923" /> <g id="g3921" style="fill:#3eb049" transform="translate(-177.95948,10.000556)"> <path d="m 1775,3884 c -66,-7 -142,-17 -170,-22 -88,-17 -301,-79 -341,-100 -11,-5 -35,-17 -54,-25 -76,-33 -156,-73 -168,-84 -7,-7 -18,-13 -23,-13 -5,0 -33,-16 -63,-35 -44,-28 -56,-41 -60,-68 -22,-149 -36,-286 -36,-357 v -85 l 102,3 c 57,2 154,-2 216,-8 l 113,-12 102,50 c 113,55 162,75 222,90 22,6 69,19 105,29 93,26 434,26 530,-1 36,-9 83,-22 105,-28 47,-12 114,-36 135,-49 8,-5 22,-12 30,-15 25,-9 125,-59 130,-65 3,-3 21,-14 40,-25 19,-10 40,-23 46,-29 6,-5 26,-21 45,-35 73,-53 227,-219 285,-305 65,-98 125,-214 149,-291 8,-27 20,-64 26,-82 48,-149 66,-442 34,-565 -8,-32 -15,-66 -15,-75 0,-19 -53,-190 -68,-218 -5,-11 -24,-48 -41,-84 -40,-81 -43,-86 -119,-192 -34,-48 -76,-98 -92,-112 -17,-13 -30,-29 -30,-35 0,-6 -3,-11 -7,-11 -5,-1 -33,-23 -63,-51 -159,-143 -398,-261 -615,-301 -27,-5 -125,-12 -217,-15 -135,-4 -166,-8 -160,-18 10,-18 171,-193 201,-219 71,-61 73,-65 54,-91 -10,-13 -21,-25 -26,-25 -4,0 -22,-15 -40,-33 -17,-18 -54,-50 -82,-72 -27,-22 -56,-45 -63,-52 -7,-7 -39,-31 -72,-54 -33,-23 -60,-45 -60,-49 0,-12 96,-20 235,-20 122,0 275,17 375,42 25,6 63,14 85,19 68,13 147,37 210,64 17,7 50,21 75,30 49,18 152,67 160,75 3,3 26,16 53,30 26,13 47,28 47,32 0,5 5,8 12,8 6,0 26,11 44,25 18,14 35,25 38,25 3,0 14,7 24,15 9,9 46,38 82,67 59,46 243,226 280,274 8,10 30,38 48,60 17,23 32,46 32,52 0,6 3,12 7,14 15,6 85,115 104,161 6,15 15,27 20,27 5,0 9,4 9,10 0,5 18,48 40,94 44,94 111,292 128,376 39,190 42,226 42,435 0,209 -3,236 -41,435 -11,56 -33,134 -51,180 -6,14 -17,45 -25,70 -26,78 -156,334 -189,371 -8,8 -14,21 -14,27 0,7 -4,12 -9,12 -5,0 -12,8 -16,19 -3,10 -16,30 -28,43 -12,13 -38,44 -57,68 -46,60 -214,227 -270,270 -25,19 -51,41 -59,48 -13,12 -46,35 -120,84 -33,22 -173,102 -186,107 -9,3 -74,32 -150,65 -59,26 -246,82 -325,97 -94,17 -321,38 -400,37 -41,0 -129,-7 -195,-14 z" id="path3889" inkscape:connector-curvature="0" /> <path d="m 720,3430 c -81,-72 -150,-139 -150,-145 0,-3 -11,-16 -23,-28 -44,-41 -159,-190 -170,-219 -8,-22 -7,-22 62,-4 60,16 162,32 254,42 33,3 57,10 58,17 7,138 19,311 25,340 3,20 3,37 -2,37 -5,0 -29,-18 -54,-40 z" id="path3891" inkscape:connector-curvature="0" /> <path d="m 863,2863 c 7,-131 14,-183 26,-183 4,0 15,14 25,32 28,46 51,73 153,177 51,52 93,96 93,98 0,2 -68,3 -151,3 H 857 Z" id="path3893" inkscape:connector-curvature="0" /> <path d="m 610,2964 c -85,-16 -195,-40 -258,-56 -34,-8 -42,-14 -36,-27 3,-9 10,-29 14,-46 20,-73 54,-160 106,-270 13,-28 24,-56 24,-63 0,-18 16,-15 58,11 42,25 82,45 167,82 87,38 90,40 88,66 -1,13 -5,67 -8,119 -3,52 -8,119 -11,148 -5,51 -6,52 -37,51 -18,0 -66,-7 -107,-15 z" id="path3895" inkscape:connector-curvature="0" /> <path d="m 208,2728 c -17,-35 -27,-61 -47,-118 -42,-118 -100,-374 -88,-386 5,-5 79,46 122,85 11,9 35,26 53,36 17,11 32,23 32,27 0,4 5,8 10,8 17,0 70,42 70,55 0,7 -6,25 -14,41 -34,71 -65,142 -77,179 -8,22 -21,55 -30,73 l -15,33 z" id="path3897" inkscape:connector-curvature="0" /> <path d="m 768,2502 c -16,-3 -227,-108 -236,-117 -4,-4 18,-47 27,-55 4,-3 13,-18 22,-35 18,-39 72,-119 82,-123 4,-2 7,-10 7,-18 0,-8 4,-14 8,-14 4,0 14,28 20,63 16,76 60,222 79,260 17,33 14,44 -9,39 z" id="path3899" inkscape:connector-curvature="0" /> <path d="m 365,2285 c -28,-19 -55,-39 -62,-45 -7,-5 -17,-10 -23,-10 -5,0 -10,-4 -10,-8 0,-5 -22,-24 -50,-43 -27,-19 -50,-37 -50,-41 0,-3 -16,-16 -35,-28 -19,-12 -35,-27 -35,-33 0,-16 279,-287 295,-287 2,0 18,20 34,44 17,25 37,50 44,58 7,7 28,33 46,58 19,25 45,55 58,66 13,12 23,25 23,29 0,6 -57,92 -70,105 -3,3 -14,21 -24,40 -11,19 -22,37 -25,40 -9,8 -30,42 -41,68 -5,12 -13,22 -17,22 -5,0 -31,-16 -58,-35 z" id="path3901" inkscape:connector-curvature="0" /> <path d="m 644,1890 c -18,-19 -55,-65 -83,-102 -49,-65 -63,-98 -40,-98 6,0 28,-13 48,-29 20,-15 50,-36 66,-45 17,-9 45,-26 64,-37 41,-24 47,-20 31,23 -21,58 -41,160 -48,243 l -7,80 z" id="path3903" inkscape:connector-curvature="0" /> <path d="m 61,1798 c 3,-62 11,-133 17,-158 6,-25 15,-72 21,-105 14,-70 43,-165 51,-165 4,0 30,47 59,105 29,58 64,121 76,140 13,19 25,40 26,47 3,25 -1,38 -12,38 -10,0 -51,35 -170,148 -36,34 -67,62 -70,62 -2,0 -1,-51 2,-112 z" id="path3905" inkscape:connector-curvature="0" /> <path d="m 403,1555 c -12,-18 -24,-43 -28,-54 -3,-12 -10,-21 -14,-21 -4,0 -14,-18 -21,-41 -8,-22 -17,-42 -21,-45 -7,-4 -39,-69 -59,-119 -4,-11 -15,-36 -23,-55 -16,-35 -16,-35 11,-49 15,-8 40,-18 57,-22 16,-4 55,-14 85,-23 156,-43 208,-56 238,-56 30,0 32,2 32,37 0,44 17,140 36,207 25,88 21,100 -43,137 -32,19 -91,55 -131,82 -40,26 -79,50 -85,52 -7,2 -22,-11 -34,-30 z" id="path3907" inkscape:connector-curvature="0" /> <path d="m 840,1288 c -1,-7 -7,-49 -15,-93 -8,-44 -15,-96 -15,-116 0,-36 1,-37 48,-42 26,-4 82,-9 125,-13 89,-8 97,1 46,51 -17,17 -45,49 -62,73 -17,23 -34,42 -39,42 -4,0 -8,7 -8,15 0,8 -4,15 -8,15 -5,0 -17,18 -28,40 -18,38 -44,54 -44,28 z" id="path3909" inkscape:connector-curvature="0" /> <path d="m 330,970 c 0,-10 17,-44 33,-64 4,-6 29,-40 55,-76 57,-80 71,-96 149,-179 l 62,-66 1,168 v 167 h -32 c -17,0 -55,7 -85,15 -29,8 -77,22 -106,30 -63,18 -77,19 -77,5 z" id="path3911" inkscape:connector-curvature="0" /> <path d="m 787,884 c -9,-9 -9,-258 -1,-331 l 7,-52 46,5 c 59,7 224,43 319,70 12,4 10,28 -8,84 -21,67 -40,139 -45,171 l -5,36 -123,7 c -67,4 -136,9 -152,12 -17,3 -33,2 -38,-2 z" id="path3913" inkscape:connector-curvature="0" /> <path d="m 1270,858 c 0,-6 4,-25 9,-42 5,-17 15,-51 21,-76 18,-65 31,-100 40,-100 16,0 116,34 129,44 8,6 28,15 44,21 34,11 48,35 21,35 -20,0 -221,98 -242,117 -17,16 -22,16 -22,1 z" id="path3915" inkscape:connector-curvature="0" /> <path d="m 1570,550 c -30,-15 -82,-38 -115,-51 -33,-12 -62,-24 -63,-25 -2,-1 3,-15 11,-31 9,-15 36,-71 62,-123 40,-82 83,-165 92,-179 2,-2 11,3 21,12 10,10 22,17 26,17 4,0 12,5 19,10 7,6 48,37 92,69 44,33 93,71 110,84 l 30,25 -55,63 c -126,148 -138,159 -157,158 -10,-1 -43,-14 -73,-29 z" id="path3917" inkscape:connector-curvature="0" /> <path d="m 1155,403 c -118,-34 -154,-43 -183,-43 -36,0 -52,-17 -25,-27 10,-4 20,-9 23,-13 17,-21 204,-117 275,-141 22,-7 49,-19 60,-26 11,-7 30,-13 42,-13 h 23 l -20,33 c -11,17 -23,39 -26,47 -4,8 -24,52 -45,98 -22,46 -39,87 -39,93 0,12 -25,10 -85,-8 z" id="path3919" inkscape:connector-curvature="0" /> </g></svg>