<svg xmlns="http://www.w3.org/2000/svg" width="120px" height="120px" viewBox="0 0 1200 1200" preserveAspectRatio="xMidYMid meet"><g id="layer101" fill="#171516" stroke="none"><path d="M320 1147 c-44 -21 -91 -57 -145 -112 -125 -125 -175 -246 -175 -425 0 -179 50 -301 175 -425 124 -125 246 -175 425 -175 179 0 301 50 425 175 125 124 175 246 175 425 0 179 -50 300 -175 425 -113 113 -259 181 -279 129 -3 -9 -6 -64 -6 -122 0 -87 -4 -113 -19 -138 l-18 -30 68 -18 c138 -35 202 -119 203 -266 1 -65 -3 -81 -27 -123 -23 -39 -27 -55 -22 -86 7 -40 -9 -121 -24 -121 -18 0 -78 25 -113 46 -30 19 -42 22 -70 14 -43 -13 -193 -13 -236 0 -28 8 -40 5 -70 -14 -35 -21 -95 -46 -113 -46 -15 0 -31 81 -24 121 5 31 1 47 -22 86 -24 42 -28 58 -27 124 1 145 75 240 211 268 l59 13 -23 46 c-13 25 -23 54 -23 64 0 10 -7 18 -15 18 -8 0 -15 -7 -15 -15 0 -8 -4 -15 -10 -15 -5 0 -7 7 -4 15 4 10 0 15 -15 15 -13 0 -21 -6 -21 -17 0 -15 -1 -15 -13 2 -16 20 -42 12 -33 -11 4 -11 -1 -13 -21 -8 -23 6 -25 4 -21 -14 4 -14 2 -19 -7 -16 -18 7 -30 -16 -14 -27 10 -6 8 -9 -10 -9 -16 0 -21 -4 -18 -14 4 -10 1 -13 -9 -9 -8 3 -14 -1 -14 -11 0 -9 -8 -16 -20 -16 -27 0 -25 5 9 38 17 15 41 47 54 71 33 61 76 83 150 78 l57 -3 0 57 c0 32 -3 64 -6 73 -10 25 -63 19 -134 -17z"/></g></svg>