<?xml version="1.0" encoding="UTF-8" standalone="no"?><svg xmlns:dc="http://purl.org/dc/elements/1.1/" xmlns:cc="http://creativecommons.org/ns#" xmlns:rdf="http://www.w3.org/1999/02/22-rdf-syntax-ns#" xmlns:svg="http://www.w3.org/2000/svg" xmlns="http://www.w3.org/2000/svg" xmlns:sodipodi="http://sodipodi.sourceforge.net/DTD/sodipodi-0.dtd" xmlns:inkscape="http://www.inkscape.org/namespaces/inkscape" width="712px" height="860px" version="1.0" viewBox="0 0 7120 8600" id="svg154" sodipodi:docname="b.svg" inkscape:version="0.92.3 (2405546, 2018-03-11)"> <metadata id="metadata160"> <rdf:RDF> <cc:Work rdf:about=""> <dc:format>image/svg+xml</dc:format> <dc:type rdf:resource="http://purl.org/dc/dcmitype/StillImage" /> <dc:title></dc:title> </cc:Work> </rdf:RDF> </metadata> <defs id="defs158" /> <sodipodi:namedview pagecolor="#ffffff" bordercolor="#666666" borderopacity="1" objecttolerance="10" gridtolerance="10" guidetolerance="10" inkscape:pageopacity="0" inkscape:pageshadow="2" inkscape:window-width="756" inkscape:window-height="480" id="namedview156" showgrid="false" inkscape:zoom="0.2744186" inkscape:cx="356" inkscape:cy="430" inkscape:window-x="0" inkscape:window-y="0" inkscape:window-maximized="0" inkscape:current-layer="svg154" /> <g id="g130"> <path d="m5028 8590c-185-33-344-137-450-293-41-60-88-157-88-181 0-10-37-14-157-19-87-4-237-18-333-33-336-49-497-45-885 26-116 21-243 42-283 45-71 7-73 9-91 44-163 318-634 411-1136 224-38-14-135-56-215-93-218-102-303-123-680-170-259-33-318-42-399-66-131-38-230-114-273-211-44-99-34-252 28-454 39-129 41-163 15-349-30-213-33-260-21-335 14-89 49-161 110-227 63-69 130-108 275-161 211-77 228-89 351-255 48-64 105-135 127-159l39-43 2-232c2-211 4-245 29-359 119-563 448-1180 977-1834 279-345 405-656 450-1109 9-87 8-161-6-365-46-694-6-1069 146-1371 199-395 603-600 1179-600 514 0 881 214 1077 629 150 315 207 720 203 1431-2 333 5 392 67 571 78 226 212 437 508 799 412 505 654 907 791 1317 82 243 115 439 115 683 0 206-20 347-76 532-4 13 8 24 44 42 76 38 144 111 185 197 21 45 53 145 80 254 52 211 76 265 157 360 235 274 277 476 134 644-53 61-175 137-429 264-330 166-384 204-605 426-114 116-215 207-263 239-106 73-265 147-367 172-96 23-261 33-332 20z" id="path128" /> </g> <g fill="#d6a312" id="g144"> <path d="m4996 8464c-148-36-282-148-357-300l-44-88v-150c1-178 11-229 110-572 89-306 103-378 115-584 33-533 96-760 245-874 60-45 75-46 75-4 0 53 30 159 67 235 63 130 168 213 288 228 145 18 381-80 535-222l68-63h80c136 0 209 22 288 85 65 53 100 133 154 349 26 105 59 216 73 246 15 30 56 91 93 135 173 208 229 337 190 440-32 82-101 131-406 285-380 193-424 223-655 455-254 256-375 336-594 391-108 28-232 31-325 8z" id="path132" /> <path d="m1880 8359c-136-29-254-70-420-148-259-123-354-146-782-195-222-26-353-53-417-86-146-74-168-222-76-505 40-121 41-182 10-400-36-252-29-325 41-426 40-59 106-98 259-154 230-84 252-100 398-293 130-171 208-246 279-267 69-20 123-19 200 5 86 26 143 66 234 163 70 75 93 112 276 446 214 393 227 412 445 685 336 421 411 590 358 814-45 188-171 309-379 362-107 27-293 26-426-1z" id="path134" /> <path d="m3360 7714c-14-2-59-9-100-15-232-34-551-176-612-272-15-23-70-98-122-167l-94-125 56-7c81-11 114-24 160-63 153-131 59-403-236-686-106-102-275-233-412-319-279-176-402-323-477-567-24-81-27-102-27-258 0-139 4-188 22-270 36-160 107-357 196-540 85-175 231-436 267-477l20-23-5 35c-3 19-62 148-131 285-170 340-232 532-250 780-12 162 26 367 92 500 30 59 74 127 80 122 2-2 8-55 14-118 24-278 98-580 207-849 17-41 87-199 157-350 352-763 479-1143 517-1552l3-28 81 54c45 29 122 88 170 131 155 135 249 175 413 175 165 0 243-27 458-158 73-44 156-88 185-97 107-35 210-97 286-171 41-39 75-66 77-60s18 63 36 126c116 419 368 1047 604 1505 185 358 300 673 371 1012 3 16 13 23 37 27 17 2 58 9 90 14 69 11 66 15 99-133 25-115 27-302 4-435-48-272-210-596-397-795-87-92-114-130-104-145 13-21 34-8 99 60 397 421 609 973 542 1409-9 57-15 105-13 106 1 1 49 25 107 54 208 104 347 218 393 321 21 46 28 134 14 183-6 22-13 27-40 27h-32v-68c0-59-4-75-30-118-45-72-133-137-290-215-171-84-290-120-400-121-98-1-153 15-205 60-50 42-74 88-90 170l-13 62-69 37c-156 81-259 253-308 513-16 85-38 302-45 445-10 196-29 302-101 541l-24 82-95 62c-199 128-461 235-691 280-104 21-378 36-444 24z" id="path136" /> <path d="m3197 3030c-71-22-140-67-230-149-37-33-111-90-165-125-183-121-263-241-233-352 13-48 60-95 196-194 55-40 132-103 172-140 88-81 176-134 266-162 58-17 86-20 175-16 130 6 231 40 374 125 55 33 155 79 248 113 188 69 229 90 286 142 103 95 88 234-40 361-68 69-150 118-265 161-51 19-142 66-204 105-129 81-198 114-282 136-82 21-225 19-298-5zm340-268c112-38 213-88 392-195 75-44 161-91 191-103 48-20 55-27 58-53 3-27 0-31-20-31-33 0-121 44-283 140-349 208-529 254-745 188-114-35-204-93-364-237-43-39-84-71-91-71s-15 13-17 30c-4 26 4 37 76 103 108 98 195 161 281 202 109 53 172 65 310 61 102-3 134-8 212-34z" id="path138" /> <path d="m2697 2124c-35-42-90-161-105-224-32-131-21-284 29-415 32-86 124-177 196-194 87-21 159 5 235 87 57 61 93 131 119 230 22 89 27 242 6 242-7 0-47 18-89 39l-76 39-1-66c0-93-26-167-76-219-67-70-126-56-171 41s-28 266 36 354c16 23 30 44 30 46 0 5-95 76-101 76-2 0-17-16-32-36z" id="path140" /> <path d="m4120 2109c-52-21-100-38-107-39-7 0 0-23 18-57 73-144 58-331-35-428-64-67-129-72-198-15-67 55-115 203-101 310l6 42-34-17c-18-10-63-28-99-40l-65-22-3-97c-5-169 51-321 157-427 85-85 151-114 261-114 107 0 174 28 261 111 186 178 224 528 84 767-14 25-31 50-38 55-8 6-43-3-107-29z" id="path142" /> </g> <g fill="#fff" id="g152"> <path d="m3360 7714c-14-2-59-9-100-15-232-34-551-176-612-272-15-23-70-98-122-167l-94-125 56-7c81-11 114-24 160-63 153-131 59-403-236-686-106-102-275-233-412-319-279-176-402-323-477-567-24-81-27-102-27-258 0-139 4-188 22-270 36-160 107-357 196-540 85-175 231-436 267-477l20-23-5 35c-3 19-62 148-131 285-170 340-232 532-250 780-12 162 26 367 92 500 30 59 74 127 80 122 2-2 8-55 14-118 24-278 98-580 207-849 17-41 87-199 157-350 352-763 479-1143 517-1552l3-28 81 54c45 29 122 88 170 131 155 135 249 175 413 175 165 0 243-27 458-158 73-44 156-88 185-97 107-35 210-97 286-171 41-39 75-66 77-60s18 63 36 126c116 419 368 1047 604 1505 185 358 300 673 371 1012 3 16 13 23 37 27 17 2 58 9 90 14 69 11 66 15 99-133 25-115 27-302 4-435-48-272-210-596-397-795-87-92-114-130-104-145 13-21 34-8 99 60 397 421 609 973 542 1409-9 57-15 105-13 106 1 1 49 25 107 54 208 104 347 218 393 321 21 46 28 134 14 183-6 22-13 27-40 27h-32v-68c0-59-4-75-30-118-45-72-133-137-290-215-171-84-290-120-400-121-98-1-153 15-205 60-50 42-74 88-90 170l-13 62-69 37c-156 81-259 253-308 513-16 85-38 302-45 445-10 196-29 302-101 541l-24 82-95 62c-199 128-461 235-691 280-104 21-378 36-444 24z" id="path146" /> <path d="m2697 2124c-35-42-90-161-105-224-32-131-21-284 29-415 32-86 124-177 196-194 87-21 159 5 235 87 57 61 93 131 119 230 22 89 27 242 6 242-7 0-47 18-89 39l-76 39-1-66c0-93-26-167-76-219-67-70-126-56-171 41s-28 266 36 354c16 23 30 44 30 46 0 5-95 76-101 76-2 0-17-16-32-36z" id="path148" /> <path d="m4120 2109c-52-21-100-38-107-39-7 0 0-23 18-57 73-144 58-331-35-428-64-67-129-72-198-15-67 55-115 203-101 310l6 42-34-17c-18-10-63-28-99-40l-65-22-3-97c-5-169 51-321 157-427 85-85 151-114 261-114 107 0 174 28 261 111 186 178 224 528 84 767-14 25-31 50-38 55-8 6-43-3-107-29z" id="path150" /> </g></svg>