<?xml version="1.0" encoding="UTF-8" standalone="no"?><svg xmlns:dc="http://purl.org/dc/elements/1.1/" xmlns:cc="http://creativecommons.org/ns#" xmlns:rdf="http://www.w3.org/1999/02/22-rdf-syntax-ns#" xmlns:svg="http://www.w3.org/2000/svg" xmlns="http://www.w3.org/2000/svg" xmlns:sodipodi="http://sodipodi.sourceforge.net/DTD/sodipodi-0.dtd" xmlns:inkscape="http://www.inkscape.org/namespaces/inkscape" width="177.09131" height="146.68071" version="1.1" viewBox="0 0 755.58929 624.17322" xml:space="preserve" id="svg3843" sodipodi:docname="b.svg" inkscape:version="0.92.3 (2405546, 2018-03-11)"><sodipodi:namedview pagecolor="#ffffff" bordercolor="#666666" borderopacity="1" objecttolerance="10" gridtolerance="10" guidetolerance="10" inkscape:pageopacity="0" inkscape:pageshadow="2" inkscape:window-width="1920" inkscape:window-height="1017" id="namedview3845" showgrid="false" fit-margin-top="2.7755576e-017" fit-margin-left="0" fit-margin-right="0" fit-margin-bottom="0" inkscape:document-units="px" units="px" inkscape:zoom="4.5106383" inkscape:cx="48.087866" inkscape:cy="71.897355" inkscape:window-x="-8" inkscape:window-y="-8" inkscape:window-maximized="1" inkscape:current-layer="svg3843" /><metadata id="metadata3780"><rdf:RDF><cc:Work rdf:about=""><dc:format>image/svg+xml</dc:format><dc:type rdf:resource="http://purl.org/dc/dcmitype/StillImage" /><dc:title></dc:title><cc:license rdf:resource="" /></cc:Work></rdf:RDF></metadata><defs id="defs3785"><clipPath id="a"><path d="M 0,600 H 800 V 0 H 0 Z" id="path3782" inkscape:connector-curvature="0" /></clipPath></defs><g transform="matrix(1.3333,0,0,-1.3333,-155.52944,718.00892)" id="g3841"><g clip-path="url(#a)" id="g3839"><g transform="translate(450.29,283.44)" id="g3789"><path d="M 0,0 C 11.36,-0.08 20.648,9.125 20.536,20.35 20.428,31.297 11.066,40.567 0.136,40.553 -10.969,40.539 -19.952,31.494 -20.014,20.269 -20.073,8.999 -11.268,0.08 0,0 m -0.035,174.84 c 11.249,-0.052 20.34,8.778 20.574,19.985 0.228,10.893 -9.116,20.385 -20.148,20.464 -11.263,0.082 -20.294,-8.786 -20.4,-20.029 -0.104,-11.299 8.766,-20.367 19.974,-20.42 m -151.44,-87.362 c 11.433,-0.06 20.291,8.565 20.366,19.83 0.077,11.524 -8.851,20.669 -20.174,20.666 -10.951,-0.004 -20.239,-9.262 -20.33,-20.265 -0.093,-11.082 8.955,-20.172 20.138,-20.231 m 76.504,72.224 c 1.946,0.755 3.276,1.296 4.622,1.793 31.983,11.791 67.374,-6.696 75.717,-39.561 0.777,-3.064 0.472,-7.501 2.4,-8.884 2.197,-1.574 6.337,-0.456 9.633,-0.467 6.051,-0.018 12.1,-0.005 18.018,-0.005 0.204,1.31 0.355,1.743 0.326,2.165 -1.437,20.543 -9.755,38.024 -23.822,52.844 -0.902,0.949 -3.157,1.277 -4.578,0.965 -15.478,-3.396 -29.043,4.42 -33.782,19.387 -0.483,1.528 -2.313,3.304 -3.852,3.714 -10.649,2.829 -21.511,3.307 -32.391,1.645 -9.032,-1.38 -17.799,-3.762 -26.313,-8.428 4.714,-8.46 9.278,-16.652 14.022,-25.168 M -88.768,30.792 c 0.428,-0.519 0.566,-0.832 0.8,-0.947 18.889,-9.286 38.569,-11.059 58.899,-5.997 1.06,0.264 2.223,1.749 2.592,2.903 5.034,15.723 17.814,23.238 33.766,19.902 1.42,-0.297 3.64,0.051 4.558,1 13.811,14.258 21.832,31.262 23.854,51.081 0.303,2.961 -0.786,3.954 -3.538,3.948 -6.979,-0.017 -13.967,-0.112 -20.937,0.148 -3.312,0.124 -4.424,-0.934 -4.899,-4.27 -3.802,-26.717 -27.38,-47.438 -54.355,-48.311 -9.316,-0.302 -18.099,1.657 -26.942,5.259 -4.711,-8.438 -9.287,-16.635 -13.798,-24.716 m 5.642,29.35 c -30.125,21.362 -35.202,69.491 -0.141,95.207 -4.861,8.088 -9.736,16.202 -14.751,24.543 -17.783,-12.456 -29.75,-28.196 -35.326,-48.498 -0.359,-1.306 0.7,-3.466 1.76,-4.627 10.223,-11.193 10.49,-26.977 0.158,-37.801 -2.299,-2.41 -2.489,-4.427 -1.552,-7.295 4.604,-14.084 12.09,-26.373 22.826,-36.578 3.63,-3.452 7.718,-6.425 12.045,-9.985 5.238,8.754 10.056,16.805 14.981,25.034 m 32.521,-100.74 c -82.511,0.604 -148.74,67.144 -147.91,148.61 0.849,83.604 66.98,148.96 150.9,147.78 81.409,-1.149 147.24,-67.703 145.52,-151.42 -1.687,-82.277 -69.019,-145.34 -148.51,-144.97" id="path3787" inkscape:connector-curvature="0" style="fill:#dd4814;fill-rule:evenodd" /></g><g transform="translate(367.17,343.59)" id="g3793"><path d="m 0,0 c -4.925,-8.229 -9.743,-16.281 -14.98,-25.035 -4.328,3.56 -8.416,6.533 -12.046,9.985 -10.736,10.205 -18.222,22.494 -22.826,36.579 -0.937,2.867 -0.747,4.884 1.552,7.294 10.332,10.825 10.065,26.608 -0.158,37.802 -1.06,1.161 -2.119,3.321 -1.76,4.627 5.576,20.301 17.543,36.041 35.326,48.498 5.015,-8.342 9.89,-16.455 14.751,-24.544 C -35.202,69.49 -30.125,21.361 0,0" id="path3791" inkscape:connector-curvature="0" style="fill:#ffffff;fill-rule:evenodd" /></g><g transform="translate(361.53,314.24)" id="g3797"><path d="m 0,0 c 4.511,8.081 9.087,16.278 13.798,24.715 8.844,-3.601 17.626,-5.56 26.942,-5.258 26.975,0.873 50.553,21.593 54.355,48.311 0.475,3.336 1.587,4.394 4.899,4.27 6.97,-0.26 13.958,-0.165 20.937,-0.148 2.752,0.006 3.841,-0.987 3.538,-3.949 -2.022,-19.818 -10.043,-36.822 -23.854,-51.08 -0.918,-0.949 -3.138,-1.297 -4.558,-1 C 80.105,19.196 67.325,11.682 62.292,-4.042 61.922,-5.196 60.759,-6.681 59.699,-6.945 39.37,-12.007 19.689,-10.233 0.8,-0.947 0.566,-0.833 0.428,-0.519 0,0" id="path3795" inkscape:connector-curvature="0" style="fill:#ffffff;fill-rule:evenodd" /></g><g transform="translate(375.32,443.15)" id="g3801"><path d="m 0,0 c -4.744,8.516 -9.308,16.708 -14.021,25.168 8.514,4.666 17.28,7.048 26.312,8.429 10.88,1.661 21.743,1.184 32.391,-1.646 1.539,-0.409 3.369,-2.186 3.853,-3.713 4.738,-14.967 18.303,-22.784 33.781,-19.387 1.421,0.312 3.677,-0.017 4.578,-0.966 14.067,-14.82 22.385,-32.301 23.822,-52.844 0.03,-0.421 -0.122,-0.855 -0.326,-2.165 -5.918,0 -11.967,-0.012 -18.017,0.005 -3.296,0.011 -7.437,-1.107 -9.634,0.468 -1.928,1.382 -1.622,5.819 -2.4,8.884 C 71.997,-4.903 36.605,13.584 4.623,1.793 3.276,1.296 1.946,0.756 0,0" id="path3799" inkscape:connector-curvature="0" style="fill:#ffffff;fill-rule:evenodd" /></g><g transform="translate(298.82,370.92)" id="g3805"><path d="m 0,0 c -11.183,0.059 -20.231,9.149 -20.138,20.231 0.092,11.003 9.379,20.261 20.33,20.265 C 11.516,40.5 20.443,31.354 20.366,19.83 20.291,8.565 11.434,-0.06 0,0" id="path3803" inkscape:connector-curvature="0" style="fill:#ffffff;fill-rule:evenodd" /></g><g transform="translate(450.26,458.29)" id="g3809"><path d="m 0,0 c -11.208,0.054 -20.078,9.121 -19.974,20.42 0.106,11.243 9.137,20.111 20.4,20.029 C 11.458,40.37 20.802,30.878 20.574,19.985 20.34,8.778 11.249,-0.052 0,0" id="path3807" inkscape:connector-curvature="0" style="fill:#ffffff;fill-rule:evenodd" /></g><g transform="translate(450.29,283.44)" id="g3813"><path d="m 0,0 c -11.268,0.08 -20.073,8.999 -20.014,20.269 0.062,11.225 9.045,20.27 20.15,20.284 10.93,0.014 20.292,-9.256 20.4,-20.203 C 20.648,9.125 11.36,-0.08 0,0" id="path3811" inkscape:connector-curvature="0" style="fill:#ffffff;fill-rule:evenodd" /></g><g transform="translate(239.28,86.858)" id="g3817"><path d="m 0,0 c 7.502,-0.396 14.688,-1.203 21.854,-1.055 11.957,0.249 21.75,7.609 25.733,18.848 3.441,9.706 3.443,19.637 1.302,29.623 C 45.484,63.308 35.221,71.431 19.321,69.78 13.861,69.213 8.592,66.614 3.292,64.779 0.639,63.858 -0.099,61.792 -0.067,58.943 0.083,45.29 0,31.634 0,17.978 Z m -17.462,128.73 c 5.668,0.99 11.214,1.959 17.355,3.031 V 80.514 c 6.586,1.713 12.608,4.088 18.815,4.754 C 45.127,88.105 64.116,72.95 67.871,46.577 69.708,33.687 69.231,21.005 63.589,9.019 55.756,-7.623 41.906,-15.499 24.096,-16.757 c -12.993,-0.918 -25.812,0.84 -38.451,3.989 -2.29,0.573 -3.448,1.291 -3.444,3.958 0.08,45.083 0.058,90.167 0.071,135.25 0,0.704 0.159,1.408 0.266,2.29" id="path3815" inkscape:connector-curvature="0" style="fill:#dd4814;fill-rule:evenodd" /></g><g transform="translate(431.1,167.53)" id="g3821"><path d="M 0,0 C 16.494,4.082 33.164,6.555 50.045,3.834 65.77,1.298 75.046,-8.465 77.626,-24.085 c 0.872,-5.281 1.326,-10.684 1.383,-16.038 0.174,-16.574 0.063,-33.152 0.063,-49.73 0,-1.585 -0.001,-3.168 -0.001,-5.123 H 61.324 c 0,9.657 0.101,19.086 -0.025,28.512 -0.156,11.618 0.175,23.3 -0.936,34.836 -1.441,15.006 -7.571,20.34 -22.676,20.79 -6.602,0.197 -13.24,-0.855 -20.137,-1.361 v -82.89 H 0 Z" id="path3819" inkscape:connector-curvature="0" style="fill:#dd4814;fill-rule:evenodd" /></g><g transform="translate(326.43,170.22)" id="g3825"><path d="m 0,0 h 17.601 c 0,-1.776 -0.018,-3.453 0.003,-5.128 0.212,-18.311 0.396,-36.623 0.687,-54.934 0.037,-2.302 0.512,-4.621 0.999,-6.885 2.301,-10.691 8.143,-16.438 19.037,-17.201 6.747,-0.473 13.601,0.603 20.407,0.966 3.357,0.179 2.799,2.651 2.8,4.761 0.009,24.284 0.006,48.569 0.007,72.853 0,1.723 -10e-4,3.446 -10e-4,5.447 h 17.892 v -3.977 c 0,-28.938 -0.06,-57.875 0.081,-86.812 0.018,-3.434 -1.008,-4.648 -4.369,-5.346 -13.718,-2.848 -27.529,-5.036 -41.514,-3.435 -19.77,2.264 -30.587,13.176 -32.663,33.015 -0.994,9.507 -0.825,19.15 -0.933,28.733 C -0.107,-25.454 0,-12.96 0,0" id="path3823" inkscape:connector-curvature="0" style="fill:#dd4814;fill-rule:evenodd" /></g><g transform="translate(665.19,170.14)" id="g3829"><path d="m 0,0 h 17.916 c 0.07,-1.498 0.181,-2.771 0.181,-4.046 0.009,-28.946 -0.034,-57.893 0.069,-86.842 0.011,-3.12 -0.69,-4.514 -4.054,-5.201 -14.302,-2.917 -28.651,-5.212 -43.256,-3.349 -17.876,2.279 -28.453,12.746 -31.044,30.734 -0.907,6.297 -1.033,12.74 -1.09,19.12 -0.142,16.415 -0.047,32.833 -0.047,49.535 h 17.601 v -4.648 c 0,-15.419 -0.138,-30.84 0.075,-46.256 0.075,-5.343 0.588,-10.764 1.662,-15.992 2.301,-11.219 8.439,-16.697 19.857,-17.219 7.199,-0.328 14.453,0.577 22.13,0.951 z" id="path3827" inkscape:connector-curvature="0" style="fill:#dd4814;fill-rule:evenodd" /></g><g transform="translate(116.65,170.24)" id="g3833"><path d="m 0,0 h 18.178 c 0,-1.85 -0.009,-3.558 10e-4,-5.268 0.098,-17.296 0.078,-34.597 0.387,-51.892 0.074,-4.157 0.891,-8.39 1.971,-12.426 2.152,-8.037 7.442,-12.862 15.797,-14.279 6.537,-1.111 19.531,-0.436 25.73,1.668 v 82.051 h 17.568 c 0.073,-1.314 0.218,-2.699 0.219,-4.084 0.013,-28.938 -0.031,-57.874 0.069,-86.81 0.011,-3.113 -0.581,-4.784 -4.074,-5.119 C 63.595,-97.338 51.381,-99.711 39.127,-99.891 17.246,-100.213 3.646,-89.117 1.683,-67.39 -0.323,-45.192 0.451,-22.743 0,0" id="path3831" inkscape:connector-curvature="0" style="fill:#dd4814;fill-rule:evenodd" /></g><g transform="translate(550.67,200.71)" id="g3837"><path d="M 0,0 V -30.202 H 36.921 V -45.179 H 0.332 C 0.237,-46.737 0.098,-47.997 0.097,-49.256 0.081,-63.792 0.048,-78.325 0.096,-92.86 c 0.058,-18.09 7.729,-24.572 25.553,-21.419 3.817,0.675 7.502,2.105 11.705,3.319 1.208,-4.53 2.451,-9.204 3.766,-14.14 -13.827,-6.03 -27.807,-7.89 -42,-2.555 -9.466,3.558 -13.919,11.572 -15.468,21.11 -0.927,5.707 -1.367,11.553 -1.396,17.339 -0.141,27.178 0.005,54.358 -0.144,81.537 -0.018,3.614 0.807,5.204 4.658,5.47 4.318,0.3 8.582,1.391 13.23,2.199" id="path3835" inkscape:connector-curvature="0" style="fill:#dd4814;fill-rule:evenodd" /></g></g></g></svg>